# xmcd
# 
# Track frame offsets:
#     150
#     9372
#     19508
#     23285
#     26136
#     39318
#     53432
#     73653
#     89093
#     111272
#     131855
#     148145
#     167391
#     177029
#     195672
#     226614
#     258554
#     276698
#     284303
#     317974
# 
# Disc length: 4430
# 
# Revision: 0
# Processed by: cddbd v1.5.2PL0 Copyright (c) Steve Scherf et al.
# Submitted via: fre:ac v1.0.31
# 
DISCID=13114c14
DTITLE=James Newton Howard - Los Temas Perdidos
DYEAR=0
DGENRE=Soundtrack
TTITLE0=01 Descending Angel (1991) (TV) End Titles
TTITLE1=02 Somebody Has to Shoot the Picture (1991) (TV) End Titles
TTITLE2=03 E.R. (1996) (TV) Theme
TTITLE3=04 The Sentinel (1998) (TV) Theme
TTITLE4=05 8 Million Ways to Die (1986) Main Title
TTITLE5=06 Nobody's Fool (1986) End Titles
TTITLE6=07 Wildcats (1986) Molly's Theme
TTITLE7=08 Campus Man (1987) End Titles
TTITLE8=09 Russkies (1987) Danny's Theme
TTITLE9=10 The Package (1989) End Titles
TTITLE10=11 My Girl (1991) Main Titles
TTITLE11=12 Wyatt Earp (1994) End Titles
TTITLE12=13 French Kiss (1994) Love Theme
TTITLE13=14 Eye for an Eye (1995) End Titles
TTITLE14=15 Outbreak (1995) Love Theme - Finale - End Titles
TTITLE15=16 Waterworld (1995) End Titles
TTITLE16=17 The Juror (1996) End Titles
TTITLE17=18 The Rich Man's Wife (1996) End Titles
TTITLE18=19 One Fine Day (1996) Suite
TTITLE19=20 My Best Friends's Wedding (1997) Marry Me - The Garden Chase
EXTD=
EXTT0=
EXTT1=
EXTT2=
EXTT3=
EXTT4=
EXTT5=
EXTT6=
EXTT7=
EXTT8=
EXTT9=
EXTT10=
EXTT11=
EXTT12=
EXTT13=
EXTT14=
EXTT15=
EXTT16=
EXTT17=
EXTT18=
EXTT19=
PLAYORDER=
